# xmcd
#
# Track frame offsets:
#	150
#	10497
#	22576
#	33101
#	45827
#	59840
#	74150
#	83823
#	97789
#	110959
#	121365
#	131069
#	142985
#	159168
#	170691
#	180107
#	190043
#	202308
#	217469
#	231742
#
# Disc length: 3235 seconds
#
# Revision: 0
# Processed by: cddbd v1.5.2PL0 Copyright (c) Steve Scherf et al.
# Submitted via: audiograbber 1.83.01
#
DISCID=210ca114
DTITLE=Wanda Jackson - The Famous Wanda Jackson CD1
DYEAR=2012
DGENRE=Country
TTITLE0=A Date With Jerry
TTITLE1=A Girl Don't Have To Drink To Have Fun
TTITLE2=A Little Bitty Tear
TTITLE3=A Woman Lives For Love
TTITLE4=A Wound Time Can't Erase
TTITLE5=Abschiedsrosen
TTITLE6=Acting Like My Old Self Again
TTITLE7=Adios My Love (German)
TTITLE8=Ain't That Loving You Baby
TTITLE9=Along Came You
TTITLE10=Already Know (What I'm Getting For My Birthday)
TTITLE11=Am I Not My Brother's Keeper
TTITLE12=Anytime You Wanna Fool Around
TTITLE13=As The day Wears On
TTITLE14=Baby Loves Him
TTITLE15=Baby, Baby, Bye Bye
TTITLE16=Baby, Lets Play House
TTITLE17=Back Then
TTITLE18=Battle Hymn Of The Republic
TTITLE19=Because It's You
EXTD=
EXTT0=
EXTT1=
EXTT2=
EXTT3=
EXTT4=
EXTT5=
EXTT6=
EXTT7=
EXTT8=
EXTT9=
EXTT10=
EXTT11=
EXTT12=
EXTT13=
EXTT14=
EXTT15=
EXTT16=
EXTT17=
EXTT18=
EXTT19=
PLAYORDER=
